# xmcd
#
# Track frame offsets:
# 150
# 11605
# 25827
# 34272
# 45170
# 58560
# 70092
# 80955
# 93612
# 106405
# 116782
# 130270
# 141830
# 152177
#
# Disc length: 2163 seconds
#
#
# Revision: 0
# Processed by: cddbd v1.5.1PL2 Copyright (c) Steve Scherf et al.
# Submitted via: FreeRIP 2.944 
#
DISCID=be08710e
DTITLE=Sally O'Brien - The World Of Country
DYEAR=1900
DGENRE=Country
TTITLE0=Close By The Hour
TTITLE1=It Keeps Right On A Hurtin'
TTITLE2=Happy Street
TTITLE3=Serving Time
TTITLE4=Carroll County Accident
TTITLE5=Deepening Snow
TTITLE6=Doug River Blues
TTITLE7=Streets Of Bakersfield
TTITLE8=Is it Real?
TTITLE9=Country I'm A Comin
TTITLE10=Anymore Than You Can Bear
TTITLE11=Where Were You When I Was Young?
TTITLE12=I Came So Close To Calling You
TTITLE13=Midnight In The Morning
EXTD=www.frodehoydal.com\nMail: frode.h@telia.com
EXTT0=
EXTT1=
EXTT2=
EXTT3=
EXTT4=
EXTT5=
EXTT6=
EXTT7=
EXTT8=
EXTT9=
EXTT10=
EXTT11=
EXTT12=
EXTT13=
PLAYORDER=
